<svg xmlns="http://www.w3.org/2000/svg" width="14" height="14" viewBox="0 0 14 14"><title>Bell-notification SVG Icon</title><path fill="none" stroke="currentColor" stroke-linecap="round" stroke-linejoin="round" d="M5.677 12.458a1.5 1.5 0 0 0 2.646 0M4.262 1.884a3.872 3.872 0 0 1 6.61 2.738c0 .604.1 1.171.25 1.752q.063.198.137.373c.232.545.871.732 1.348 1.084c.711.527.574 1.654-.018 2.092c0 0-.955.827-5.589.827s-5.589-.827-5.589-.827c-.592-.438-.73-1.565-.018-2.092c.477-.352 1.116-.539 1.348-1.084c.231-.544.387-1.24.387-2.125c0-1.027.408-2.012 1.134-2.738"/></svg>