<svg xmlns="http://www.w3.org/2000/svg" width="14" height="14" viewBox="0 0 14 14"><title>Disable-bell-notification SVG Icon</title><g fill="none" stroke="currentColor" stroke-linecap="round" stroke-linejoin="round"><path d="M6.11 12.458a1.5 1.5 0 0 0 2.645 0m-4.647-8.18a3.484 3.484 0 0 1 6.897.706c0 .527.123 1.19.224 1.578q.042.13.09.248c.217.552.877.729 1.32 1.122c.558.495.423 1.445-.088 1.824c0 0-.447.386-2.258.602M7.52 10.5c-4.17 0-5.03-.744-5.03-.744c-.511-.379-.645-1.33-.088-1.824c.443-.393 1.102-.57 1.32-1.122a4 4 0 0 0 .09-.248"/><path d="M.6.6c4.397 5.632 7.048 8.252 12.8 12.8"/></g></svg>